<svg width="100%" viewBox="80 40 370 120" role="img" xmlns="http://www.w3.org/2000/svg">
<title>Groceria</title>
<g transform="translate(92,54) scale(0.92)">
  <rect x="0" y="0" width="100" height="100" rx="24" fill="#1A56DB"/>
  <path d="M35 46 a15 15 0 0 1 30 0" fill="none" stroke="#FFFFFF" stroke-width="5.5" stroke-linecap="round"/>
  <rect x="29" y="48" width="42" height="40" rx="9" fill="#FFFFFF"/>
  <line x1="30" y1="58" x2="70" y2="58" stroke="#D9E1EC" stroke-width="1.6" stroke-linecap="round"/>
  <path d="M50 50 C50 45 50 41 51 37" fill="none" stroke="#16A34A" stroke-width="2" stroke-linecap="round"/>
  <path d="M50 43 C45 41 40 40 35 42 C40 45 45 47 50 46 Z" fill="#16A34A"/>
  <path d="M51 39 C52 31 57 26 64 25 C61 32 56 38 51 41 Z" fill="#34D27B"/>
</g>
<text x="210" y="112" font-size="46" font-family="Poppins, sans-serif" font-weight="700"><tspan fill="#16243F">Grocer</tspan><tspan fill="#16A34A">ia</tspan></text>
</svg>
