<svg width="100%" viewBox="80 10 620 165" role="img" xmlns="http://www.w3.org/2000/svg">
<title>Groceria</title>
<g transform="translate(72,-2) scale(1.5)">
  <path d="M35 46 a15 15 0 0 1 30 0" fill="none" stroke="#FFFFFF" stroke-width="5.5" stroke-linecap="round"/>
  <rect x="29" y="48" width="42" height="40" rx="9" fill="#FFFFFF"/>
  <line x1="30" y1="58" x2="70" y2="58" stroke="#1A56DB" stroke-width="1.6" stroke-linecap="round"/>
  <path d="M50 50 C50 45 50 41 51 37" fill="none" stroke="#34D27B" stroke-width="2" stroke-linecap="round"/>
  <path d="M50 43 C45 41 40 40 35 42 C40 45 45 47 50 46 Z" fill="#34D27B"/>
  <path d="M51 39 C52 31 57 26 64 25 C61 32 56 38 51 41 Z" fill="#7CE3A8"/>
</g>
<text x="195" y="118" font-size="100" font-family="Poppins, sans-serif" font-weight="700"><tspan fill="#FFFFFF">Groce</tspan><tspan fill="#34D27B">ria</tspan></text>
<text x="197" y="158" font-size="36" font-family="Poppins, sans-serif" font-weight="500" letter-spacing="2" fill="rgba(255,255,255,.85)">fresh groceries, delivered</text>
</svg>